<?xml version="1.0" encoding="UTF-8" standalone="no"?>
<!-- Created with Inkscape (http://www.inkscape.org/) -->

<svg
   xmlns:dc="http://purl.org/dc/elements/1.1/"
   xmlns:cc="http://creativecommons.org/ns#"
   xmlns:rdf="http://www.w3.org/1999/02/22-rdf-syntax-ns#"
   xmlns:svg="http://www.w3.org/2000/svg"
   xmlns="http://www.w3.org/2000/svg"
   xmlns:sodipodi="http://sodipodi.sourceforge.net/DTD/sodipodi-0.dtd"
   xmlns:inkscape="http://www.inkscape.org/namespaces/inkscape"
   width="150"
   height="95.21653"
   id="svg3856"
   version="1.1"
   inkscape:version="0.48.1 r9760"
   sodipodi:docname="favicon.svg">
  <defs
     id="defs3858" />
  <sodipodi:namedview
     id="base"
     pagecolor="#ffffff"
     bordercolor="#666666"
     borderopacity="1.0"
     inkscape:pageopacity="0.0"
     inkscape:pageshadow="2"
     inkscape:zoom="0.35"
     inkscape:cx="42.142856"
     inkscape:cy="-146.67745"
     inkscape:document-units="px"
     inkscape:current-layer="layer1"
     showgrid="false"
     inkscape:window-width="635"
     inkscape:window-height="454"
     inkscape:window-x="0"
     inkscape:window-y="48"
     inkscape:window-maximized="0"
     fit-margin-top="0"
     fit-margin-left="0"
     fit-margin-right="0"
     fit-margin-bottom="0" />
  <metadata
     id="metadata3861">
    <rdf:RDF>
      <cc:Work
         rdf:about="">
        <dc:format>image/svg+xml</dc:format>
        <dc:type
           rdf:resource="http://purl.org/dc/dcmitype/StillImage" />
        <dc:title></dc:title>
      </cc:Work>
    </rdf:RDF>
  </metadata>
  <g
     inkscape:label="Ebene 1"
     inkscape:groupmode="layer"
     id="layer1"
     transform="translate(-307.85714,-290.4682)">
    <g
       transform="translate(173.01458,-103.36521)"
       id="g3014"
       inkscape:export-filename="/home/jan/favicon.png"
       inkscape:export-xdpi="18.904287"
       inkscape:export-ydpi="18.904287">
      <path
         sodipodi:nodetypes="sssss"
         inkscape:connector-curvature="0"
         id="path3194-7"
         d="m 265.12628,471.97708 c -5.94879,11.01193 -22.12149,16.82624 -29.20606,11.88538 -12.79995,-8.92685 -8.92929,-11.62797 -18.73875,-42.30914 -2.24079,-7.00856 16.3866,-8.30437 30.72511,-1.17992 14.33682,7.12361 23.46313,20.04632 17.2197,31.60368 z"
         style="opacity:0.54491021;color:#000000;fill:#e9e150;fill-opacity:1;fill-rule:nonzero;stroke:none;stroke-width:1.08677113px;marker:none;visibility:visible;display:inline;overflow:visible;enable-background:accumulate" />
      <path
         sodipodi:nodetypes="ssssss"
         inkscape:connector-curvature="0"
         id="path3984-8"
         d="m 283.82051,397.07562 c 4.1403,3.61374 -5.78388,10.49635 -3.54958,20.60007 1.59211,7.19968 -7.92102,21.18498 -14.79595,25.13321 -15.9781,9.17609 -37.71428,0.43262 -49.95216,-6.51295 -11.33815,-6.43493 13.99148,-13.07183 29.62973,-24.59014 15.27827,-11.25316 27.95834,-23.9778 38.66796,-14.63019 z"
         style="opacity:0.54491021;fill:#e9e150;fill-opacity:1;stroke:none" />
      <path
         transform="matrix(0.19655877,0,0,0.20253873,148.33689,323.64711)"
         d="m 372.85714,688.07648 c 0,71.00804 -26.22333,128.57142 -58.57143,128.57142 -32.34811,0 -58.57143,-57.56338 -58.57143,-128.57142 0,-71.00804 26.22332,-128.57143 58.57143,-128.57143 32.3481,0 58.57143,57.56339 58.57143,128.57143 z"
         sodipodi:ry="128.57143"
         sodipodi:rx="58.57143"
         sodipodi:cy="688.07648"
         sodipodi:cx="314.28571"
         id="path4052-2"
         style="opacity:0.74850296;color:#000000;fill:#e9e150;fill-opacity:1;fill-rule:nonzero;stroke:none;stroke-width:1.0451169px;marker:none;visibility:visible;display:inline;overflow:visible;enable-background:accumulate"
         sodipodi:type="arc" />
      <path
         style="opacity:0.54491021;color:#000000;fill:#e9e150;fill-opacity:1;fill-rule:nonzero;stroke:none;stroke-width:1.08677113px;marker:none;visibility:visible;display:inline;overflow:visible;enable-background:accumulate"
         d="m 155.12588,472.02182 c 5.94879,11.01194 22.12149,16.82625 29.20606,11.88538 12.79995,-8.92685 8.92929,-11.62796 18.73875,-42.30913 2.24079,-7.00857 -16.3866,-8.30438 -30.72511,-1.17993 -14.33682,7.12362 -23.46313,20.04632 -17.2197,31.60368 z"
         id="path4059-2"
         inkscape:connector-curvature="0"
         sodipodi:nodetypes="sssss" />
      <path
         style="opacity:0.54491021;color:#000000;fill:#e9e150;fill-opacity:1;fill-rule:nonzero;stroke:none;marker:none;visibility:visible;display:inline;overflow:visible;enable-background:accumulate"
         d="m 135.86462,397.89795 c -4.1403,3.61375 5.78388,10.49636 3.54958,20.60008 -1.59211,7.19968 7.92101,21.18498 14.79595,25.1332 15.97809,9.1761 37.71428,0.43263 49.95215,-6.51294 11.33816,-6.43494 -13.99147,-13.07183 -29.62973,-24.59014 -15.27826,-11.25316 -27.95834,-23.9778 -38.66795,-14.6302 z"
         id="path4061-8"
         inkscape:connector-curvature="0"
         sodipodi:nodetypes="ssssss" />
      <path
         sodipodi:nodetypes="sssss"
         inkscape:connector-curvature="0"
         id="path4056-8"
         d="m 220.47397,433.98072 c 0,7.41802 -4.32806,11.23862 -10.00511,11.23862 -5.67706,0 -10.55334,-3.8206 -10.55334,-11.23862 0,-7.41802 4.60216,-13.43151 10.27922,-13.43151 5.67706,0 10.27923,6.01349 10.27923,13.43151 z"
         style="color:#000000;fill:#e9e150;fill-opacity:1;fill-rule:nonzero;stroke:none;stroke-width:1.08677113px;marker:none;visibility:visible;display:inline;overflow:visible;enable-background:accumulate" />
      <path
         transform="matrix(0.2231149,0,0,0.29653997,131.57861,295.02782)"
         inkscape:transform-center-y="-39.740282"
         inkscape:transform-center-x="-11.627907"
         d="m 379.99999,422.36218 c 0,8.67876 -13.75125,15.71429 -30.71428,15.71429 -16.96304,0 -30.71429,-7.03553 -30.71429,-15.71429 0,-8.67876 13.75125,-15.71428 30.71429,-15.71428 16.96303,0 30.71428,7.03552 30.71428,15.71428 z"
         sodipodi:ry="15.714286"
         sodipodi:rx="30.714285"
         sodipodi:cy="422.36218"
         sodipodi:cx="349.28571"
         id="path4145-0"
         style="opacity:0.8652695;color:#000000;fill:#e9e150;fill-opacity:1;fill-rule:nonzero;stroke:none;stroke-width:0.81069821px;marker:none;visibility:visible;display:inline;overflow:visible;enable-background:accumulate"
         sodipodi:type="arc" />
      <path
         inkscape:connector-curvature="0"
         id="path4147-7"
         d="m 203.75309,418.08219 c -10.41627,-7.40104 -21.10667,-5.20814 -21.10667,-5.20814 l 0,0"
         style="fill:none;stroke:#704826;stroke-width:0.57563645;stroke-linecap:butt;stroke-linejoin:miter;stroke-miterlimit:4;stroke-opacity:1;stroke-dasharray:none" />
      <path
         style="fill:none;stroke:#704826;stroke-width:0.57563645;stroke-linecap:butt;stroke-linejoin:miter;stroke-miterlimit:4;stroke-opacity:1;stroke-dasharray:none"
         d="m 214.44348,417.80808 c 10.41628,-7.40104 21.10667,-5.20814 21.10667,-5.20814 l 0,0"
         id="path4157-7"
         inkscape:connector-curvature="0" />
    </g>
  </g>
</svg>
